<?xml version="1.0" encoding="UTF-8"?>
<svg xmlns="http://www.w3.org/2000/svg" width="865.76" height="682.89" viewBox="0 0 865.76 682.89">
  <polygon points="54.21 300.82 49.5 31.97 805.38 31.97 799.7 300.82 54.21 300.82" fill="#ebf4fc"></polygon>
  <rect x="219" y="140.8" width="44.41" height="160.48" fill="#98cfe4"></rect>
  <rect x="433.8" y="199.17" width="71.54" height="102.11" fill="#98cfe4"></rect>
  <rect x="457.55" y="157.3" width="31.69" height="61.99" fill="#98cfe4"></rect>
  <rect x="359.58" y="154.55" width="36.35" height="9.94" fill="#98cfe4"></rect>
  <rect x="218.06" y="127.1" width="46.29" height="6.31" fill="#98cfe4"></rect>
  <polygon points="578.42 301.23 578.42 211.87 545.97 224.52 545.97 301.23 578.42 301.23" fill="#98cfe4"></polygon>
  <rect x="395.58" y="114.29" width="42.77" height="186.99" fill="#98cfe4"></rect>
  <rect x="402.75" y="95.22" width="28.78" height="73.43" fill="#98cfe4"></rect>
  <rect x="415.43" y="65.37" width="3.41" height="65" fill="#98cfe4"></rect>
  <rect x="256.1" y="131.69" width="3.86" height="35.51" fill="#98cfe4"></rect>
  <rect x="247.69" y="131.69" width="3.86" height="35.51" fill="#98cfe4"></rect>
  <rect x="239.28" y="131.69" width="3.86" height="35.51" fill="#98cfe4"></rect>
  <rect x="230.85" y="131.69" width="3.86" height="35.51" fill="#98cfe4"></rect>
  <rect x="222.44" y="131.69" width="3.86" height="35.51" fill="#98cfe4"></rect>
  <rect x="363.23" y="160.92" width="64.71" height="140.36" fill="#98cfe4"></rect>
  <rect x="257.88" y="224.93" width="37.74" height="76.35" fill="#98cfe4"></rect>
  <polygon points="781.82 301.23 781.82 234.93 737.15 236.52 737.15 301.23 781.82 301.23" fill="#98cfe4"></polygon>
  <polygon points="771.33 243.61 745.47 243.61 745.47 218.52 758.4 206.38 771.33 218.52 771.33 243.61" fill="#98cfe4"></polygon>
  <polygon points="125.6 301.23 125.6 226.67 68.49 228.46 68.49 301.23 125.6 301.23" fill="#98cfe4"></polygon>
  <polygon points="125.6 274.49 125.6 205.46 75.75 207.12 75.75 274.49 125.6 274.49" fill="#98cfe4"></polygon>
  <rect x="574.56" y="195.26" width="74.66" height="106.21" fill="#98cfe4"></rect>
  <rect x="578.42" y="184.65" width="51.45" height="19.62" fill="#98cfe4"></rect>
  <polygon points="620.09 209.29 584.34 209.29 584.34 176.08 602.21 160.01 620.09 176.08 620.09 209.29" fill="#98cfe4"></polygon>
  <polygon points="345.36 301.28 345.36 160.91 308.42 168.4 308.42 301.28 345.36 301.28" fill="#98cfe4"></polygon>
  <polygon points="224.07 301.28 224.07 142.93 187.13 151.37 187.13 301.28 224.07 301.28" fill="#98cfe4"></polygon>
  <polygon points="326.89 301.28 326.89 198.87 289.95 192.9 289.95 301.28 326.89 301.28" fill="#98cfe4"></polygon>
  <rect x="659.74" y="115.63" width="2.98" height="18.15" fill="#98cfe4"></rect>
  <rect x="652.89" y="119.79" width="2.98" height="18.15" fill="#98cfe4"></rect>
  <rect x="672.06" y="119.79" width="2.98" height="18.15" fill="#98cfe4"></rect>
  <polygon points="691.68 301.23 691.68 133.02 637.56 133.83 637.56 301.23 691.68 301.23" fill="#98cfe4"></polygon>
  <polygon points="547.24 301.28 547.24 178.26 493.67 140.39 493.67 301.28 547.24 301.28" fill="#98cfe4"></polygon>
  <rect x="687.28" y="179.36" width="50.31" height="121.87" fill="#98cfe4"></rect>
  <rect x="687.28" y="171.8" width="40.88" height="45.55" fill="#98cfe4"></rect>
  <rect x="697.17" y="160.38" width="23.05" height="19.85" fill="#98cfe4"></rect>
  <rect x="123.29" y="187.34" width="65.86" height="113.89" fill="#98cfe4"></rect>
  <rect x="135.63" y="180.28" width="53.52" height="42.57" fill="#98cfe4"></rect>
  <rect x="146.02" y="169.6" width="30.18" height="18.55" fill="#98cfe4"></rect>
  <rect x="229" y="150.11" width="26.09" height="4.83" fill="#fff"></rect>
  <rect x="229" y="162.13" width="26.09" height="4.82" fill="#fff"></rect>
  <rect x="229" y="174.14" width="26.09" height="4.82" fill="#fff"></rect>
  <rect x="229" y="186.16" width="26.09" height="4.83" fill="#fff"></rect>
  <rect x="229" y="198.18" width="26.09" height="4.83" fill="#fff"></rect>
  <rect x="229" y="210.2" width="26.09" height="4.82" fill="#fff"></rect>
  <rect x="229" y="222.21" width="26.09" height="4.83" fill="#fff"></rect>
  <rect x="229" y="234.23" width="26.09" height="4.82" fill="#fff"></rect>
  <rect x="229" y="246.25" width="26.09" height="4.83" fill="#fff"></rect>
  <rect x="229" y="258.27" width="26.09" height="4.83" fill="#fff"></rect>
  <rect x="229" y="270.29" width="26.09" height="4.82" fill="#fff"></rect>
  <rect x="403.68" y="123.05" width="26.61" height="2.8" fill="#fff"></rect>
  <rect x="403.68" y="130.04" width="26.61" height="2.8" fill="#fff"></rect>
  <rect x="403.68" y="137.02" width="26.61" height="2.8" fill="#fff"></rect>
  <rect x="403.68" y="144.01" width="26.61" height="2.81" fill="#fff"></rect>
  <rect x="403.68" y="151" width="26.61" height="2.8" fill="#fff"></rect>
  <rect x="403.68" y="157.98" width="26.61" height="2.8" fill="#fff"></rect>
  <rect x="403.68" y="164.97" width="26.61" height="2.8" fill="#fff"></rect>
  <rect x="403.68" y="171.95" width="26.61" height="2.8" fill="#fff"></rect>
  <rect x="403.68" y="178.94" width="26.61" height="2.8" fill="#fff"></rect>
  <rect x="403.68" y="185.93" width="26.61" height="2.8" fill="#fff"></rect>
  <rect x="403.68" y="192.91" width="26.61" height="2.81" fill="#fff"></rect>
  <rect x="403.68" y="199.34" width="26.61" height="2.81" fill="#fff"></rect>
  <rect x="403.68" y="206.32" width="26.61" height="2.8" fill="#fff"></rect>
  <rect x="403.68" y="213.31" width="26.61" height="2.81" fill="#fff"></rect>
  <rect x="403.68" y="220.3" width="26.61" height="2.8" fill="#fff"></rect>
  <rect x="403.68" y="227.28" width="26.61" height="2.8" fill="#fff"></rect>
  <rect x="403.68" y="234.27" width="26.61" height="2.8" fill="#fff"></rect>
  <rect x="403.68" y="241.25" width="26.61" height="2.81" fill="#fff"></rect>
  <rect x="403.68" y="248.24" width="26.61" height="2.81" fill="#fff"></rect>
  <rect x="403.68" y="255.23" width="26.61" height="2.81" fill="#fff"></rect>
  <rect x="403.68" y="262.21" width="26.61" height="2.8" fill="#fff"></rect>
  <rect x="403.68" y="269.2" width="26.61" height="2.8" fill="#fff"></rect>
  <rect x="369.72" y="171.13" width="6.73" height="2.96" fill="#fff"></rect>
  <rect x="369.72" y="182.15" width="6.73" height="2.96" fill="#fff"></rect>
  <rect x="369.72" y="193.17" width="6.73" height="2.96" fill="#fff"></rect>
  <rect x="369.72" y="204.19" width="6.73" height="2.96" fill="#fff"></rect>
  <rect x="369.72" y="215.2" width="6.73" height="2.96" fill="#fff"></rect>
  <rect x="369.72" y="226.22" width="6.73" height="2.96" fill="#fff"></rect>
  <rect x="369.72" y="237.24" width="6.73" height="2.96" fill="#fff"></rect>
  <rect x="369.72" y="248.26" width="6.73" height="2.96" fill="#fff"></rect>
  <rect x="369.72" y="259.28" width="6.73" height="2.96" fill="#fff"></rect>
  <rect x="369.72" y="270.3" width="6.73" height="2.96" fill="#fff"></rect>
  <rect x="369.72" y="281.32" width="6.73" height="2.96" fill="#fff"></rect>
  <rect x="379.58" y="171.13" width="6.73" height="2.96" fill="#fff"></rect>
  <rect x="379.58" y="182.15" width="6.73" height="2.96" fill="#fff"></rect>
  <rect x="379.58" y="193.17" width="6.73" height="2.96" fill="#fff"></rect>
  <rect x="379.58" y="204.19" width="6.73" height="2.96" fill="#fff"></rect>
  <rect x="379.58" y="215.2" width="6.73" height="2.96" fill="#fff"></rect>
  <rect x="379.58" y="226.22" width="6.73" height="2.96" fill="#fff"></rect>
  <rect x="379.58" y="237.24" width="6.73" height="2.96" fill="#fff"></rect>
  <rect x="379.58" y="248.26" width="6.73" height="2.96" fill="#fff"></rect>
  <rect x="379.58" y="259.28" width="6.73" height="2.96" fill="#fff"></rect>
  <rect x="379.58" y="270.3" width="6.73" height="2.96" fill="#fff"></rect>
  <rect x="379.58" y="281.32" width="6.73" height="2.96" fill="#fff"></rect>
  <rect x="389.43" y="171.13" width="6.73" height="2.96" fill="#fff"></rect>
  <rect x="389.43" y="182.15" width="6.73" height="2.96" fill="#fff"></rect>
  <rect x="389.43" y="193.17" width="6.73" height="2.96" fill="#fff"></rect>
  <rect x="389.43" y="204.19" width="6.73" height="2.96" fill="#fff"></rect>
  <rect x="389.43" y="215.2" width="6.73" height="2.96" fill="#fff"></rect>
  <rect x="389.43" y="226.22" width="6.73" height="2.96" fill="#fff"></rect>
  <rect x="389.43" y="237.24" width="6.73" height="2.96" fill="#fff"></rect>
  <rect x="389.43" y="248.26" width="6.73" height="2.96" fill="#fff"></rect>
  <rect x="389.43" y="259.28" width="6.73" height="2.96" fill="#fff"></rect>
  <rect x="389.43" y="270.3" width="6.73" height="2.96" fill="#fff"></rect>
  <rect x="389.43" y="281.32" width="6.73" height="2.96" fill="#fff"></rect>
  <rect x="586.04" y="192.52" width="7.08" height="2.36" fill="#fff"></rect>
  <rect x="586.04" y="201.32" width="7.08" height="2.36" fill="#fff"></rect>
  <rect x="586.04" y="210.11" width="7.08" height="2.36" fill="#fff"></rect>
  <rect x="586.04" y="218.91" width="7.08" height="2.36" fill="#fff"></rect>
  <rect x="586.04" y="227.7" width="7.08" height="2.36" fill="#fff"></rect>
  <rect x="586.04" y="236.49" width="7.08" height="2.36" fill="#fff"></rect>
  <rect x="586.04" y="245.29" width="7.08" height="2.36" fill="#fff"></rect>
  <rect x="586.04" y="254.08" width="7.08" height="2.36" fill="#fff"></rect>
  <rect x="586.04" y="262.88" width="7.08" height="2.36" fill="#fff"></rect>
  <rect x="586.04" y="271.67" width="7.08" height="2.36" fill="#fff"></rect>
  <rect x="586.04" y="280.47" width="7.08" height="2.36" fill="#fff"></rect>
  <rect x="601.25" y="192.52" width="7.08" height="2.36" fill="#fff"></rect>
  <rect x="601.25" y="201.32" width="7.08" height="2.36" fill="#fff"></rect>
  <rect x="601.25" y="210.11" width="7.08" height="2.36" fill="#fff"></rect>
  <rect x="601.25" y="218.91" width="7.08" height="2.36" fill="#fff"></rect>
  <rect x="601.25" y="227.7" width="7.08" height="2.36" fill="#fff"></rect>
  <rect x="601.25" y="236.49" width="7.08" height="2.36" fill="#fff"></rect>
  <rect x="601.25" y="245.29" width="7.08" height="2.36" fill="#fff"></rect>
  <rect x="601.25" y="254.08" width="7.08" height="2.36" fill="#fff"></rect>
  <rect x="601.25" y="262.88" width="7.08" height="2.36" fill="#fff"></rect>
  <rect x="601.25" y="271.67" width="7.08" height="2.36" fill="#fff"></rect>
  <rect x="601.25" y="280.47" width="7.08" height="2.36" fill="#fff"></rect>
  <rect x="616.45" y="192.52" width="7.08" height="2.36" fill="#fff"></rect>
  <rect x="616.45" y="201.32" width="7.08" height="2.36" fill="#fff"></rect>
  <rect x="616.45" y="210.11" width="7.08" height="2.36" fill="#fff"></rect>
  <rect x="616.45" y="218.91" width="7.08" height="2.36" fill="#fff"></rect>
  <rect x="616.45" y="227.7" width="7.08" height="2.36" fill="#fff"></rect>
  <rect x="616.45" y="236.49" width="7.08" height="2.36" fill="#fff"></rect>
  <rect x="616.45" y="245.29" width="7.08" height="2.36" fill="#fff"></rect>
  <rect x="616.45" y="254.08" width="7.08" height="2.36" fill="#fff"></rect>
  <rect x="616.45" y="262.88" width="7.08" height="2.36" fill="#fff"></rect>
  <rect x="616.45" y="271.67" width="7.08" height="2.36" fill="#fff"></rect>
  <rect x="616.45" y="280.47" width="7.08" height="2.36" fill="#fff"></rect>
  <rect x="499.62" y="192.52" width="7.08" height="2.36" fill="#fff"></rect>
  <rect x="499.62" y="201.32" width="7.08" height="2.36" fill="#fff"></rect>
  <rect x="499.62" y="210.11" width="7.08" height="2.36" fill="#fff"></rect>
  <rect x="499.62" y="218.91" width="7.08" height="2.36" fill="#fff"></rect>
  <rect x="499.62" y="227.7" width="7.08" height="2.36" fill="#fff"></rect>
  <rect x="499.62" y="236.49" width="7.08" height="2.36" fill="#fff"></rect>
  <rect x="499.62" y="245.29" width="7.08" height="2.36" fill="#fff"></rect>
  <rect x="499.62" y="254.08" width="7.08" height="2.36" fill="#fff"></rect>
  <rect x="499.62" y="262.88" width="7.08" height="2.36" fill="#fff"></rect>
  <rect x="499.62" y="271.67" width="7.08" height="2.36" fill="#fff"></rect>
  <rect x="499.62" y="280.47" width="7.08" height="2.36" fill="#fff"></rect>
  <rect x="514.82" y="192.52" width="7.08" height="2.36" fill="#fff"></rect>
  <rect x="514.82" y="201.32" width="7.08" height="2.36" fill="#fff"></rect>
  <rect x="514.82" y="210.11" width="7.08" height="2.36" fill="#fff"></rect>
  <rect x="514.82" y="218.91" width="7.08" height="2.36" fill="#fff"></rect>
  <rect x="514.82" y="227.7" width="7.08" height="2.36" fill="#fff"></rect>
  <rect x="514.82" y="236.49" width="7.08" height="2.36" fill="#fff"></rect>
  <rect x="514.82" y="245.29" width="7.08" height="2.36" fill="#fff"></rect>
  <rect x="514.82" y="254.08" width="7.08" height="2.36" fill="#fff"></rect>
  <rect x="514.82" y="262.88" width="7.08" height="2.36" fill="#fff"></rect>
  <rect x="514.82" y="271.67" width="7.08" height="2.36" fill="#fff"></rect>
  <rect x="514.82" y="280.47" width="7.08" height="2.36" fill="#fff"></rect>
  <rect x="530.03" y="192.52" width="7.08" height="2.36" fill="#fff"></rect>
  <rect x="530.03" y="201.32" width="7.08" height="2.36" fill="#fff"></rect>
  <rect x="530.03" y="210.11" width="7.08" height="2.36" fill="#fff"></rect>
  <rect x="530.03" y="218.91" width="7.08" height="2.36" fill="#fff"></rect>
  <rect x="530.03" y="227.7" width="7.08" height="2.36" fill="#fff"></rect>
  <rect x="530.03" y="236.49" width="7.08" height="2.36" fill="#fff"></rect>
  <rect x="530.03" y="245.29" width="7.08" height="2.36" fill="#fff"></rect>
  <rect x="530.03" y="254.08" width="7.08" height="2.36" fill="#fff"></rect>
  <rect x="530.03" y="262.88" width="7.08" height="2.36" fill="#fff"></rect>
  <rect x="530.03" y="271.67" width="7.08" height="2.36" fill="#fff"></rect>
  <rect x="530.03" y="280.47" width="7.08" height="2.36" fill="#fff"></rect>
  <rect x="647.29" y="145.17" width="38.01" height="2.96" fill="#fff"></rect>
  <rect x="647.29" y="155.95" width="38.01" height="2.96" fill="#fff"></rect>
  <rect x="647.29" y="166.73" width="38.01" height="2.96" fill="#fff"></rect>
  <rect x="647.29" y="177.5" width="38.01" height="2.96" fill="#fff"></rect>
  <rect x="647.29" y="188.28" width="38.01" height="2.96" fill="#fff"></rect>
  <rect x="647.29" y="199.05" width="38.01" height="2.96" fill="#fff"></rect>
  <rect x="647.29" y="209.83" width="38.01" height="2.96" fill="#fff"></rect>
  <rect x="647.29" y="220.6" width="38.01" height="2.96" fill="#fff"></rect>
  <rect x="647.29" y="231.38" width="38.01" height="2.96" fill="#fff"></rect>
  <rect x="647.29" y="242.16" width="38.01" height="2.96" fill="#fff"></rect>
  <rect x="647.29" y="252.93" width="38.01" height="2.96" fill="#fff"></rect>
  <g opacity="0.5">
    <polygon points="58.24 302.25 53.53 33.4 809.41 33.4 803.73 302.25 58.24 302.25" fill="#fff"></polygon>
  </g>
  <path d="M45.76,27.63l8.1,282,113.55.75V314h4.87v-3.56l100.93.67v2.86h4.87v-2.86l100.95.67v2.16h4.88v-2.15l101,.67v1.45h4.88v-1.31l101,.68V314h4.88v-.74l101,.67h4.88l105.14-5.36,7.56-281H45.76Zm225.51,6.65.48,66.13H174.28l.61-66.13Zm105.87,0,.48,66.13H280.13l.61-66.13Zm105.86,0,.49,66.13H386l.6-66.13Zm105.87,0,.49,66.13H491.88l.61-66.13Zm105.87,0,.48,66.13H597.75l.61-66.13ZM807,100.41H703.62l.61-66.13H808.4ZM701.76,303.13l1.77-192.62H806.8l-4.07,192.62Zm-105.87,0,1.77-192.62H695.3l1.4,192.62Zm-105.87,0,1.77-192.62h97.64l1.4,192.62Zm-105.87,0,1.77-192.62h97.64L485,303.13Zm-105.87,0,1.77-192.62h97.64l1.44,192.62Zm-105.87,0,1.78-192.62h97.63l1.41,192.62ZM53.86,110.51H166l1.41,192.62H57.24Zm-.18-10.1L52.52,34.28H165.4l.48,66.13Z" fill="#fff"></path>
  <path d="M596.17,314.47h-5.88v-.74l-100-.68v1.31h-5.88v-1.45l-100-.67v2.15h-5.88v-2.16l-99.95-.67v2.86h-5.87v-2.86l-99.93-.67v3.56h-5.87v-3.57l-113.54-.75v-.48L45.26,27.54V27h769.5v.51L807.17,309l-105.6,5.38h-4.9l-100.5-.67Zm-4.88-1h3.88v-.74h.5l101,.67h4.88l104.65-5.33,7.53-280H46.27l8.07,281.09,113.57.75v3.57h3.87v-3.56h.5l101.43.67v2.86h3.87v-2.86h.5l101.45.67v2.16h3.88v-2.15h.5l101.5.67v1.45h3.88v-1.31h.5l101.5.68Zm211.93-9.84h-102v-.5L703,110H807.31Zm-101-1h100l4-191.62H704Zm-5.06,1H595.38v-.5L597.16,110h98.63v.5Zm-100.81-1h99.8L694.8,111H598.15Zm-5.06,1H489.51v-.5L491.29,110h98.63v.5Zm-100.81-1h99.8L588.93,111H492.28Zm-5.06,1H383.64v-.5L385.42,110h98.63v.5Zm-100.81-1h99.8L483.06,111H386.41Zm-5,1H277.77v-.5L279.55,110h98.63v.5Zm-100.85-1h99.84L377.19,111H280.54Zm-5,1H171.9v-.5L173.69,110h98.62v.5Zm-100.82-1h99.81L271.32,111H174.68Zm-5,1H56.75v-.49L53.35,110H166.44v.5Zm-110.13-1H166.85L165.45,111H54.37ZM807.5,100.91H703.11l.62-67.13H808.91Zm-103.38-1h102.4l1.37-65.13H704.72Zm-8.4,1H597.24l.62-67.13h97.37Zm-97.47-1h96.46l-.47-65.13H598.85Zm-8.39,1H491.37L492,33.78h97.37Zm-97.48-1h96.47l-.48-65.13H493Zm-8.39,1H385.51l.61-67.13h97.37Zm-97.47-1H483l-.48-65.13H387.11Zm-8.4,1h-98.5l.62-67.13h97.39Zm-97.49-1h96.48l-.47-65.13H281.23Zm-8.38,1H173.77l.62-67.13h97.37Zm-97.47-1h96.46l-.47-65.13H175.38Zm-8.4,1H53.19L52,33.78H165.89Zm-112.21-1h111.2l-.47-65.13H53Z" fill="#231f20"></path>
  <path d="M534.07,113.75a4.23,4.23,0,0,0-4.66-.31l-.53-.85a5.26,5.26,0,0,1,5.79.35Z" fill="#fff"></path>
  <path d="M388.34,159.08l.86,5.36a1.4,1.4,0,0,0,1.62,1.16h0l11.65-2.12a1.41,1.41,0,0,0,1.14-1.55l-.64-5.09a1.4,1.4,0,0,0-1.55-1.22h-.05l-11.88,1.84A1.4,1.4,0,0,0,388.34,159.08Z" fill="#fff"></path>
  <path d="M572.2,283.31H645a10,10,0,0,1,2.11.16A9.87,9.87,0,0,1,655,295L640.67,396.66a13.79,13.79,0,0,1-13.14,11.68h-71.8c-6.35,0-10.8-5.24-10-11.68L559,295A13.69,13.69,0,0,1,572.2,283.31Z" fill="#f25c05"></path>
  <path d="M555.74,408.84a10.4,10.4,0,0,1-8-3.49,10.91,10.91,0,0,1-2.5-8.76l13.28-101.66a14.18,14.18,0,0,1,13.64-12.12H645a10.38,10.38,0,0,1,10.49,12.28L641.16,396.73a14.29,14.29,0,0,1-13.61,12.11Zm16.47-125a13.16,13.16,0,0,0-12.67,11.26L546.26,396.72a10,10,0,0,0,2.26,8,9.43,9.43,0,0,0,7.22,3.15h71.79a13.28,13.28,0,0,0,12.64-11.26l14.37-101.66a9.37,9.37,0,0,0-7.48-11,9.67,9.67,0,0,0-2-.15Z" fill="#231f20"></path>
  <path d="M572.22,283.31h58a9.77,9.77,0,0,1,2.09.16A9.89,9.89,0,0,1,640.22,295L626,396.66a13.75,13.75,0,0,1-13.12,11.68H555.73c-6.35,0-10.8-5.24-10-11.68L559,295A13.69,13.69,0,0,1,572.22,283.31Z" fill="#f29f05"></path>
  <path d="M555.74,408.84a10.4,10.4,0,0,1-8-3.49,10.91,10.91,0,0,1-2.5-8.76l13.28-101.66a14.16,14.16,0,0,1,13.66-12.12h58a10.58,10.58,0,0,1,2.17.16,10.41,10.41,0,0,1,8.34,12.11L626.52,396.73a14.27,14.27,0,0,1-13.6,12.11Zm16.49-125a13.16,13.16,0,0,0-12.69,11.26L546.26,396.72a10,10,0,0,0,2.26,8,9.43,9.43,0,0,0,7.22,3.15H612.9a13.27,13.27,0,0,0,12.63-11.26l14.2-101.66a9.42,9.42,0,0,0-7.54-11,8.77,8.77,0,0,0-2-.15Z" fill="#231f20"></path>
  <path d="M595.29,267.38h31.07a8.53,8.53,0,0,1,6.56,2.89,8.69,8.69,0,0,1,1.91,7,11.68,11.68,0,0,1-11.19,9.84h-31a9.21,9.21,0,0,1-1.66-.12,8.41,8.41,0,0,1-6.86-9.72A11.59,11.59,0,0,1,595.29,267.38Z" fill="#f25c05"></path>
  <path d="M592.39,287.56a8.56,8.56,0,0,1-1.51-.13,8.92,8.92,0,0,1-7.27-10.3,12.09,12.09,0,0,1,11.67-10.25h31.08a8.89,8.89,0,0,1,9,10.42,12.2,12.2,0,0,1-11.68,10.26H592.39Zm2.91-19.68a11.1,11.1,0,0,0-10.7,9.42,7.92,7.92,0,0,0,6.45,9.15,8.13,8.13,0,0,0,1.56.11h31a11.2,11.2,0,0,0,10.7-9.42,8.15,8.15,0,0,0-1.81-6.55,8,8,0,0,0-6-2.71H595.3Z" fill="#231f20"></path>
  <path d="M595.27,267.38h22a8.47,8.47,0,0,1,6.56,2.89,8.62,8.62,0,0,1,1.93,7,11.67,11.67,0,0,1-11.18,9.84H592.63a9.21,9.21,0,0,1-1.66-.12,8.41,8.41,0,0,1-6.86-9.72A11.6,11.6,0,0,1,595.27,267.38Z" fill="#f29f05"></path>
  <path d="M592.39,287.56a8.56,8.56,0,0,1-1.51-.13,8.92,8.92,0,0,1-7.27-10.3,12.1,12.1,0,0,1,11.64-10.25h22a8.9,8.9,0,0,1,9,10.42,12.2,12.2,0,0,1-11.67,10.26H592.39Zm2.88-19.68a11.11,11.11,0,0,0-10.67,9.42,7.93,7.93,0,0,0,6.45,9.15,8.13,8.13,0,0,0,1.56.11h21.95a11.2,11.2,0,0,0,10.69-9.42,8.14,8.14,0,0,0-1.82-6.55,8,8,0,0,0-6.17-2.71Z" fill="#231f20"></path>
  <rect x="273.45" y="362.63" width="531.36" height="189.6" fill="#fff"></rect>
  <path d="M805.31,552.73H273V362.13H805.31Zm-531.36-1H804.31V363.13H274Z" fill="#231f20"></path>
  <rect x="239.1" y="336.79" width="580.9" height="25.84" fill="#fff"></rect>
  <path d="M820.5,363.13H238.6V336.29H820.5Zm-580.9-1H819.5V337.29H239.6Z" fill="#231f20"></path>
  <rect x="273.32" y="363.42" width="392.33" height="19.39" fill="#231f20"></rect>
  <rect x="663.76" y="352.11" width="143.36" height="201.08" fill="#fff"></rect>
  <path d="M807.61,553.7H663.26V351.61H807.61Zm-143.35-1H806.61V352.61H664.26Z" fill="#231f20"></path>
  <rect x="623.9" y="336.79" width="196.11" height="32.3" fill="#fff"></rect>
  <path d="M820.5,369.59H623.4v-33.3H820.5Zm-196.1-1H819.5v-31.3H624.4Z" fill="#231f20"></path>
  <polygon points="777.75 568.61 777.57 569.93 777.36 571.49 777.11 573.34 776.05 581.1 775.94 581.93 774.83 590.06 774.71 590.92 770.33 623.12 770.21 624 767.95 640.6 721.28 640.6 720.64 635.89 720.52 635.03 720.17 632.5 720.06 631.67 718.11 617.35 717.98 616.36 713.62 584.32 713.48 583.31 712.69 577.52 711.48 568.61 777.75 568.61" fill="#fff"></polygon>
  <path d="M768.38,641.1H720.84l-9.93-73h67.41Zm-46.67-1h45.8l9.66-71H712.05Z" fill="#231f20"></path>
  <polygon points="777.75 568.61 777.57 569.93 777.36 571.49 777.11 573.34 775.85 573.42 774.53 573.51 755.16 574.76 753.84 574.85 712.69 577.52 711.48 568.61 777.75 568.61" fill="#231f20"></polygon>
  <path d="M783.66,569a460.59,460.59,0,0,1-78.08,0v-7.09h78.08Z" fill="#fff"></path>
  <path d="M744.62,571.15c-13.06,0-26.12-.55-39.09-1.65l-.45,0v-8.05h79.08v8.05l-.46,0C770.73,570.6,757.67,571.15,744.62,571.15Zm-38.54-2.61a461.37,461.37,0,0,0,77.08,0v-6.13H706.08Z" fill="#231f20"></path>
  <path d="M765.88,478.33c-2.44,2.93-4.2,13.75-8.87,15.49-3.21,1.2-4.91-3.44,1.31-9.3a24.24,24.24,0,0,0,6.56-11,91.71,91.71,0,0,0-4.39-14.13c-3.59,3.31-9.34,8-11,5.77-1.79-2.45,3.57-10.17,6.56-14.13a24.7,24.7,0,0,0-4.65-5.19,14.65,14.65,0,0,0-9.84-3.51,13,13,0,0,0-7.48,2.73c3.2,6.34,7.92,17,4.61,19.52-3.07,2.28-7.52-6.59-10.3-13.2-3.92,6.05-6.55,14.34-7.69,22.34a14,14,0,0,0,4.38,4.75c6.07,4.36,13.27,13.17,9.67,15.13s-7.36-3.22-10-7.83a18.66,18.66,0,0,0-4.6-5.55c-.06,1.4-.06,2.77,0,4.08.95,25.17,25.52,25.16,25.52,25.16S770.22,503.77,765.88,478.33Zm-30.93.51c-2.43,0-6.3-4.57-8.11-7.1s-.37-4.26,1.38-3.77h.07C730.74,468.73,738.11,478.87,735,478.84Zm21.44-6h.07c1.74-.48,3.18.68,2.36,2.91-1.08,2.91-2.51,4.07-4.68,3-1.37-.77-.2-5.25,2.27-5.94Z" fill="#fea595"></path>
  <path d="M745.62,510c-.25,0-25.07-.28-26-25.64-.06-1.32-.06-2.71,0-4.12l0-1,.77.63a19,19,0,0,1,4.73,5.7c3.79,6.5,6.85,9,9.37,7.63a1.29,1.29,0,0,0,.7-1.15c.19-3-5.45-9.56-10.43-13.13a14.67,14.67,0,0,1-4.52-4.91l-.08-.15,0-.17c1.23-8.6,4.06-16.82,7.77-22.54l.51-.79.37.87c3.34,7.94,6.33,12.63,8.41,13.2a1.21,1.21,0,0,0,1.13-.21c2.19-1.67.46-8.56-4.76-18.89l-.18-.37.32-.25a13.39,13.39,0,0,1,7.77-2.84,15,15,0,0,1,10.18,3.63,24.59,24.59,0,0,1,4.74,5.29l.2.3-.21.28c-5.24,6.93-7.69,12-6.56,13.54a.91.91,0,0,0,.7.36c1.65.14,5.11-2.11,9.56-6.21l.53-.49.27.67a91.34,91.34,0,0,1,4.42,14.21l0,.12,0,.12a24.65,24.65,0,0,1-6.7,11.23c-4,3.81-4.45,6.89-3.74,8a1.46,1.46,0,0,0,1.91.44c2.75-1,4.55-5.8,6-9.64a22.71,22.71,0,0,1,2.66-5.7l.7-.83.18,1.07c4.37,25.61-20.39,31.64-20.64,31.7Zm-25.06-28.68c0,1,0,2,0,3,.9,24,23.36,24.67,25,24.68,1.56-.37,23.18-6,20-29.25a39.61,39.61,0,0,0-1.82,4.35c-1.59,4.24-3.4,9.05-6.58,10.23a2.44,2.44,0,0,1-3.11-.85c-1.1-1.76-.31-5.31,3.9-9.28a23.67,23.67,0,0,0,6.39-10.65,89.87,89.87,0,0,0-4.07-13.26c-4.58,4.15-7.87,6.17-9.79,6a1.88,1.88,0,0,1-1.41-.77c-1.47-2,.66-6.87,6.34-14.44a23.9,23.9,0,0,0-4.35-4.8,14,14,0,0,0-9.51-3.39,12.46,12.46,0,0,0-6.86,2.38c5.54,11.06,7,17.71,4.28,19.77a2.28,2.28,0,0,1-2,.38c-2.36-.65-5.29-5-8.69-12.9-3.36,5.52-5.92,13.16-7.08,21.16a13.63,13.63,0,0,0,4.14,4.44c5.31,3.81,11.06,10.5,10.84,14a2.28,2.28,0,0,1-1.21,2c-4.11,2.23-8.09-3.5-10.72-8A18.24,18.24,0,0,0,720.56,481.28Zm35.06-1.64a3.87,3.87,0,0,1-1.7-.44,2.29,2.29,0,0,1-.83-2.43c.22-1.78,1.4-3.94,3.18-4.44l1.32-.37-.19.28A2.26,2.26,0,0,1,759,473a2.72,2.72,0,0,1,.32,3c-.73,1.95-1.6,3.11-2.68,3.53A2.57,2.57,0,0,1,755.62,479.64Zm.77-6.3c-1.23.45-2.14,2.13-2.31,3.55-.08.7,0,1.28.3,1.43a2.25,2.25,0,0,0,1.86.2c.8-.31,1.49-1.28,2.11-2.94a1.88,1.88,0,0,0-.11-1.95,1.62,1.62,0,0,0-1.65-.31Zm-21.43,6h0c-3.19,0-8-6.56-8.51-7.31-1-1.41-1.21-2.82-.54-3.77a2.15,2.15,0,0,1,2.39-.79l.16,0c2.3.72,8.14,8.4,7.76,10.84A1.15,1.15,0,0,1,735,479.34Zm-7.33-10.95a1.08,1.08,0,0,0-.92.44c-.42.59-.22,1.57.53,2.62,2.38,3.32,5.8,6.89,7.71,6.89h0c.22,0,.25,0,.26-.16.27-1.73-5-9-7-9.71l-.12,0A1.74,1.74,0,0,0,727.63,468.39Z" fill="#231f20"></path>
  <path d="M743,472c2.15,11,1.46,22.38.64,33.5-.88,11.88-2.06,23.77-1.61,35.7a99.18,99.18,0,0,0,2.69,20.08c.14.56,1,.32.87-.24-5.84-23.62-.46-47.65-.29-71.52a88,88,0,0,0-1.44-17.75c-.11-.57-1-.33-.86.23Z" fill="#231f20"></path>
  <path d="M731.94,509.56c-.25,3.8,4.71,13.57,2,17.73-1.89,2.86-6,.12-4.43-8.28a24.34,24.34,0,0,0-1.2-12.76,90.81,90.81,0,0,0-11.9-8.84c-.94,4.8-2.82,12-5.47,11.15-2.89-.92-3.12-10.32-3-15.28a24.87,24.87,0,0,0-6.81-1.45,14.56,14.56,0,0,0-10,3,12.94,12.94,0,0,0-4.43,6.62c6.32,3.23,16.45,9.09,15.23,13-1.13,3.65-10-.88-16.1-4.59.4,7.2,3.17,15.45,7,22.59a14.26,14.26,0,0,0,6.34,1.24c7.47-.05,18.49,2.81,16.74,6.52s-7.85,1.74-12.74-.4a18.74,18.74,0,0,0-7-1.77c.78,1.17,1.58,2.27,2.4,3.31,15.61,19.76,35.45,5.26,35.45,5.26S750.41,527.5,731.94,509.56ZM707.26,528.2c-2,1.42-7.79,0-10.74-.94s-2.81-3.23-1.11-3.86h.07C697.89,522.5,709.82,526.36,707.26,528.2ZM721,510.69v-.06c1.12-1.42,3-1.33,3.61.95.85,3,.38,4.77-2,5.17C721.14,517,719.47,512.72,721,510.69Z" fill="#fea595"></path>
  <path d="M718,552.19c-6.24,0-13.4-2.41-19.82-10.53-.83-1.06-1.65-2.19-2.42-3.34l-.55-.83,1,0a19.22,19.22,0,0,1,7.19,1.82c6.9,3,10.85,3.23,12.07.64a1.28,1.28,0,0,0-.11-1.34c-1.62-2.54-9.86-4.47-16-4.47h-.19a14.83,14.83,0,0,1-6.55-1.28l-.15-.07-.08-.15c-4.11-7.66-6.68-16-7.06-22.8l-.05-.95.81.49c7.23,4.4,12.54,6.48,14.57,5.71a1.21,1.21,0,0,0,.79-.84c.81-2.6-4.65-7.12-15-12.4l-.37-.19.12-.4a13.39,13.39,0,0,1,4.6-6.87,15,15,0,0,1,10.34-3.11,25.07,25.07,0,0,1,7,1.48l.34.13v.35c-.21,8.54.81,14.21,2.65,14.79a.87.87,0,0,0,.78-.1c1.41-.83,2.88-4.72,4-10.66l.14-.72.61.39a90.08,90.08,0,0,1,12,8.89l.09.08,0,.11a24.83,24.83,0,0,1,1.22,13c-1,5.46.46,8.18,1.7,8.69a1.49,1.49,0,0,0,1.82-.77c1.59-2.44.23-7.35-.87-11.29-.7-2.53-1.31-4.72-1.21-6.2l.07-1.08.78.75c18.59,18.06,2.27,37.54,2.11,37.74l-.09.07A30.82,30.82,0,0,1,718,552.19Zm-20.82-13.56c.58.83,1.18,1.64,1.79,2.41,14.9,18.86,33.41,6.14,34.72,5.2,1-1.23,15.05-18.54-1.17-35.4a39.63,39.63,0,0,0,1.11,4.62c1.2,4.35,2.57,9.28.74,12.1a2.46,2.46,0,0,1-3,1.15c-1.92-.77-3.38-4.1-2.31-9.79a23.84,23.84,0,0,0-1.14-12.38,89.28,89.28,0,0,0-11.13-8.32c-1.24,6.07-2.71,9.64-4.37,10.62a1.93,1.93,0,0,1-1.6.2c-3.15-1-3.46-9.92-3.35-15.41a23.6,23.6,0,0,0-6.34-1.3,14.05,14.05,0,0,0-9.66,2.9,12.38,12.38,0,0,0-4.13,6c7.67,3.95,16.35,9.41,15.1,13.4a2.23,2.23,0,0,1-1.39,1.48c-2.86,1.08-9.36-2.16-14.62-5.29.55,6.46,3,14.14,6.8,21.27a13.88,13.88,0,0,0,6,1.13h.18c5.68,0,14.81,1.73,16.86,4.93a2.29,2.29,0,0,1,.17,2.3c-2,4.25-8.6,2-13.39-.15A18.23,18.23,0,0,0,697.17,538.63Zm7.37-9.33a31.17,31.17,0,0,1-8.17-1.56c-1.65-.53-2.64-1.54-2.67-2.72a2.22,2.22,0,0,1,1.53-2.09l.17,0c2.38-.73,11.38,1.92,12.56,4.13a1.17,1.17,0,0,1-.41,1.58h0A5.35,5.35,0,0,1,704.54,529.3Zm-9-5.4a1.19,1.19,0,0,0-.8,1.1c0,.56.54,1.33,2,1.78,4,1.29,8.76,2.1,10.3,1,.19-.13.16-.18.1-.29-.85-1.6-9.5-4.36-11.42-3.63Zm27-6.64a2.17,2.17,0,0,1-1.72-1.27c-.94-1.54-1.27-4-.26-5.46v-.07l.1-.14a2.61,2.61,0,0,1,2.52-1.09,2.8,2.8,0,0,1,2,2.22c.57,2,.54,3.45-.08,4.43a3.2,3.2,0,0,1-2.32,1.36A.75.75,0,0,1,722.49,517.26Zm-1-6.43-.08.16c-.84,1.1-.56,3.2.21,4.48.36.59.72.83.91.79a2.28,2.28,0,0,0,1.65-.92c.46-.72.44-1.91,0-3.62-.23-.86-.66-1.39-1.21-1.51A1.58,1.58,0,0,0,721.49,510.83Z" fill="#231f20"></path>
  <path d="M709.69,517.94c5.77,5.31,11.49,10.82,16.15,17.16a86.91,86.91,0,0,1,8.81,15.65c1.77,3.87,3.45,7.78,5.18,11.67.23.52,1,.07.77-.45-2.83-6.39-5.48-12.91-8.79-19.07a75.9,75.9,0,0,0-10.92-15.17c-3.35-3.65-6.93-7.07-10.57-10.42-.42-.39-1.06.24-.63.63Z" fill="#231f20"></path>
  <path d="M753.3,551.15s19.74,14.64,35.49-5c.82-1,1.63-2.13,2.42-3.29a18.62,18.62,0,0,0-7,1.71c-4.91,2.11-11,4-12.74.32s9.31-6.52,16.78-6.41a14,14,0,0,0,6.35-1.2c3.84-7.1,6.67-15.34,7.12-22.53-6.18,3.66-15,8.13-16.14,4.47-1.19-4,9-9.75,15.33-12.93a13.16,13.16,0,0,0-4.38-6.65,14.63,14.63,0,0,0-10-3,24.57,24.57,0,0,0-6.83,1.4c0,5-.25,14.36-3.14,15.26-2.66.83-4.48-6.38-5.39-11.18a88.94,88.94,0,0,0-11.94,8.74,24.06,24.06,0,0,0-1.3,12.76c1.51,8.41-2.61,11.12-4.48,8.25-2.71-4.18,2.31-13.92,2.1-17.72C736.91,532,753.3,551.15,753.3,551.15Zm38.6-23H792c1.69.65,1.84,2.9-1.13,3.86s-8.78,2.29-10.75.86c-2.55-1.81,9.41-5.57,11.81-4.7Zm-27.12-6.82c-2.4-.41-2.86-2.19-2-5.17.67-2.28,2.52-2.36,3.62-.93v.06c1.59,2.06-.11,6.33-1.62,6.06Z" fill="#fea595"></path>
  <path d="M769.47,556.85a30.82,30.82,0,0,1-16.47-5.3l-.08-.08c-.17-.19-16.48-19.76,2.28-37.68L756,513l.06,1.08a22.81,22.81,0,0,1-1.25,6.15c-1.13,4-2.53,8.87-.93,11.33a1.47,1.47,0,0,0,1.8.78c1.25-.49,2.75-3.21,1.76-8.67a24.74,24.74,0,0,1,1.33-13l0-.11.09-.09a90.87,90.87,0,0,1,12-8.79l.61-.37.14.71c1.13,6,2.57,9.84,4,10.68a.9.9,0,0,0,.79.11c1.83-.57,2.87-6.09,2.79-14.77v-.36l.34-.12a24.71,24.71,0,0,1,7-1.43,15.12,15.12,0,0,1,10.33,3.1,13.57,13.57,0,0,1,4.56,6.92l.11.39-.37.19c-10.37,5.21-15.87,9.71-15.07,12.34a1.29,1.29,0,0,0,.79.85c2,.76,7.2-1.22,14.61-5.61l.81-.48,0,.94c-.43,6.8-3.05,15.09-7.18,22.74l-.08.15-.16.07a14.8,14.8,0,0,1-6.57,1.24c-6-.06-14.57,1.85-16.2,4.38a1.27,1.27,0,0,0-.11,1.32c1.22,2.59,5.18,2.4,12.09-.57a19,19,0,0,1,7.18-1.75l1,0-.56.82c-.94,1.38-1.72,2.44-2.45,3.33C782.77,554.46,775.67,556.85,769.47,556.85Zm-15.83-6.07c1.29.94,19.72,13.81,34.76-4.94.55-.68,1.14-1.46,1.8-2.41a18.29,18.29,0,0,0-5.78,1.59c-2.78,1.2-11.18,4.8-13.41.08a2.28,2.28,0,0,1,.18-2.28c2-3.12,11.26-4.93,17.06-4.84a13.75,13.75,0,0,0,6-1.09c3.83-7.13,6.32-14.79,6.91-21.22-7.44,4.32-12.37,6.06-14.66,5.19a2.23,2.23,0,0,1-1.39-1.49c-1.21-4,7.51-9.44,15.21-13.34a12.59,12.59,0,0,0-4.1-6,14.05,14.05,0,0,0-9.65-2.89,24.15,24.15,0,0,0-6.36,1.25c0,6.6-.54,14.47-3.49,15.39a1.9,1.9,0,0,1-1.6-.21c-1.65-1-3.09-4.57-4.3-10.64a88.91,88.91,0,0,0-11.16,8.23,23.65,23.65,0,0,0-1.23,12.38c1,5.69-.46,9-2.38,9.77a2.45,2.45,0,0,1-3-1.17c-1.85-2.84-.44-7.78.8-12.14a39.09,39.09,0,0,0,1.13-4.57C738.59,532.17,752.61,549.56,753.64,550.78ZM782.91,534a5.45,5.45,0,0,1-3.12-.72,1.14,1.14,0,0,1-.41-1.54c1.13-2.16,10-4.75,12.52-4.09l.25,0a2.24,2.24,0,0,1,1.52,2.1c0,1.16-1,2.18-2.68,2.71A31.39,31.39,0,0,1,782.91,534Zm7.92-5.48c-2.92,0-9.83,2.29-10.56,3.69,0,.09-.07.13.11.25,1.68,1.22,7.08.12,10.3-.92,1.23-.4,2-1.07,2-1.79a1.13,1.13,0,0,0-.56-1l-.38-.14A2.76,2.76,0,0,0,790.83,528.52Zm-25.92-6.66a.82.82,0,0,1-.22,0l-.41-.1a3.07,3.07,0,0,1-1.93-1.3c-.61-1-.63-2.42-.05-4.42a2.74,2.74,0,0,1,2-2.21,2.55,2.55,0,0,1,2.46,1.12l.11.2c1,1.5.7,3.91-.23,5.45A2.22,2.22,0,0,1,764.91,521.86Zm-.2-7.08a.68.68,0,0,0-.2,0c-.55.1-1,.64-1.25,1.5-.49,1.71-.51,2.88-.06,3.61a2.28,2.28,0,0,0,1.66.93l.11,0a1.67,1.67,0,0,0,.85-.8c.77-1.27,1-3.33.18-4.46l-.1-.19A1.63,1.63,0,0,0,764.71,514.78Z" fill="#231f20"></path>
  <path d="M777.1,522c-11.93,12-21.4,25.85-30.57,40-.31.48.46.93.78.45,9.12-14.06,18.55-27.87,30.43-39.78.4-.41-.23-1-.64-.64Z" fill="#231f20"></path>
  <path d="M783.66,561.91c0,.72-17.48,1.3-39,1.3s-39-.58-39-1.3,17.47-1.3,39-1.3S783.66,561.19,783.66,561.91Z" fill="#231f20"></path>
  <path d="M458.78,631.65S443.32,643.77,439.72,649a1.79,1.79,0,0,0,.86,2.69c4.39,1.63,18.48,4.17,46-13.8,0,0,.21,10.59,2.7,15.58h5.19l1.25-34.27-30.94,6.23Z" fill="#fff"></path>
  <path d="M495,654h-6l-.13-.28c-2.12-4.23-2.62-12.21-2.73-14.9-26.93,17.37-40.93,15.15-45.72,13.37a2.3,2.3,0,0,1-1.1-3.45c3.56-5.16,18.19-16.68,19.13-17.42l6.11-6.32.15,0,31.56-6.35Zm-5.36-1H494l1.21-33.15-30.17,6.07-6,6.16c-.15.12-15.43,12.14-18.95,17.23a1.28,1.28,0,0,0-.16,1.11,1.31,1.31,0,0,0,.78.84c4.7,1.74,18.54,3.89,45.58-13.76l.75-.49,0,.9C487.1,638,487.33,648,489.62,653Z" fill="#231f20"></path>
  <path d="M465.21,605.92s.21,14.1-6.43,25.73c0,0,20.35-.41,37-12.46v-14.1Z" fill="#fff"></path>
  <path d="M457.9,632.17l.44-.77c6.5-11.38,6.37-25.33,6.37-25.47v-.49l31.53-.86v14.87l-.21.15c-16.54,12-37,12.55-37.25,12.55Zm7.81-25.76c0,2.55-.54,14.47-6.06,24.7,4.06-.25,21.28-1.91,35.59-12.18V605.6Z" fill="#231f20"></path>
  <path d="M431.78,631.24s-15.45,12.12-19.06,17.33a1.81,1.81,0,0,0,.86,2.7c4.39,1.63,18.49,4.16,46-13.8,0,0,.2,10.59,2.7,15.57h5.19l1.24-34.26L437.8,625Z" fill="#fff"></path>
  <path d="M468,653.54h-6l-.14-.28c-2.12-4.23-2.62-12.21-2.72-14.89-26.94,17.37-40.94,15.15-45.73,13.37a2.31,2.31,0,0,1-1.1-3.45c3.57-5.16,18.19-16.69,19.13-17.43l6.11-6.31.15,0,31.57-6.35Zm-5.36-1H467l1.2-33.15-30.17,6.07-6,6.17c-.16.12-15.44,12.13-18.95,17.23A1.25,1.25,0,0,0,413,650a1.3,1.3,0,0,0,.79.83c4.69,1.74,18.53,3.89,45.57-13.75l.76-.5,0,.91C460.11,637.56,460.33,647.6,462.62,652.54Z" fill="#231f20"></path>
  <path d="M438.22,608a50.18,50.18,0,0,1-6.44,23.26s20.35-.42,37-12.46V607.15Z" fill="#fff"></path>
  <path d="M430.91,631.75l.43-.76a50.07,50.07,0,0,0,6.38-23v-.5l31.53-.86V619l-.2.15c-16.55,12-37.05,12.55-37.25,12.56Zm7.8-23.29a51.59,51.59,0,0,1-6,22.23c4.06-.25,21.28-1.9,35.58-12.17V607.66Z" fill="#231f20"></path>
  <path d="M501.06,605.89l-26.34.94,5-259.41,2.19-27.29L513.61,323S507.65,530.61,501.06,605.89Z" fill="#f29f05"></path>
  <path d="M474.21,607.35v-.53l5-259.41,2.23-27.82,32.65,2.91V323c-.06,2.08-6,208.52-12.55,283l0,.44Zm8.18-286.67-2.16,26.78-5,258.85,25.37-.91c6.35-73,12.18-270.9,12.5-282Z" fill="#231f20"></path>
  <path d="M438,345.23s-5.65,60.53-5.34,118.88l-.94,144,43-1.25s20.7-258.15,20.38-275.41Z" fill="#f29f05"></path>
  <path d="M431.24,608.6v-.52l.94-144c-.31-57.69,5.28-118.31,5.34-118.92l0-.36,58-14,0,.63c.31,17.07-20.19,272.87-20.4,275.45l0,.44-.45,0Zm7.24-263c-.46,5.08-5.59,63.13-5.3,118.47l-.93,143.47,42-1.23c1-12,20.23-252.88,20.36-274.28Z" fill="#231f20"></path>
  <polygon points="86.72 652.15 132.51 652.15 141.54 604.81 118.8 585.8 113.51 600.76 109.46 626.3 86.72 652.15" fill="#fff"></polygon>
  <path d="M132.92,652.66H85.61L109,626.08l4-25.4L118.57,585l23.52,19.65-.06.29Zm-45.1-1H132.1L141,605l-22-18.35-5,14.27-4,25.6-.1.11Z" fill="#231f20"></path>
  <path d="M116.93,635.21a.51.51,0,0,1-.37-.17l-7.48-8.41a.49.49,0,0,1,0-.7.48.48,0,0,1,.7,0l7.48,8.41a.51.51,0,0,1,0,.71A.54.54,0,0,1,116.93,635.21Z" fill="#231f20"></path>
  <polygon points="219.73 604.5 220.35 652.15 284.52 652.47 251.81 631.28 250.88 604.81 219.73 604.5" fill="#fff"></polygon>
  <path d="M286.23,653l-66.37-.32L219.22,604l32.14.32.95,26.7Zm-65.38-1.31,62,.3-31.5-20.4v-.26l-.92-26-30.16-.3Z" fill="#231f20"></path>
  <path d="M241.85,638.33a.51.51,0,0,1-.42-.23.5.5,0,0,1,.14-.69l10-6.54a.5.5,0,0,1,.55.83l-10,6.54A.46.46,0,0,1,241.85,638.33Z" fill="#231f20"></path>
  <path d="M246.83,314.48s9.66,90.65,11.84,145.17l-.31,144.85-45.48.31S197.3,400.46,193.56,386.75L151.2,606.05l-47.35-6.85,31.46-249.83,50.47-36.44,62.3-3.43Z" fill="#f29f05"></path>
  <path d="M151.6,606.62l-48.31-7,.06-.48,31.49-250,50.76-36.65h.15l63-3.46-1.39,5.55c.35,3.3,9.7,91.94,11.83,145.11L258.86,605l-46.45.32,0-.47c-.15-2-14.42-188.75-18.81-215.49Zm-47.19-7.85,46.39,6.72,42.68-220.94.57,2.07C197.7,400,212.32,590.93,213.34,604.3l44.52-.3.31-144.36c-2.16-53.85-11.74-144.2-11.84-145.1v-.09l1.11-4.41L186,313.42l-50.17,36.23Z" fill="#231f20"></path>
  <path d="M193.57,387.25h-.09a.51.51,0,0,1-.41-.58l3.43-20.87a.5.5,0,0,1,.42-.41l16.2-2.18a.48.48,0,0,1,.56.43.5.5,0,0,1-.42.56l-15.84,2.13-3.36,20.51A.49.49,0,0,1,193.57,387.25Z" fill="#231f20"></path>
  <path d="M229.08,312.62s-28,3.11-43.3.31l-.22-1.28-1.24-29.76c0-22.35-14.69-131.14-14.69-131.14s14.28,13.5,29.23-1.71h0C199.26,149.19,211.9,155.31,229.08,312.62Z" fill="#fea595"></path>
  <path d="M202.43,314.59a98,98,0,0,1-16.74-1.17l-.34-.07-.29-1.61-1.24-29.83c0-22.09-14.53-130-14.68-131.09l-.19-1.4,1,1c.57.54,14.1,13,28.52-1.71l.26-.25.32.16c.51.19,13.34,6.84,30.49,164l.06.5-.5.05C228.94,313.14,215.64,314.59,202.43,314.59Zm-16.22-2.1c14,2.46,38.52.08,42.32-.32-15.84-144.84-27.72-160.83-29.6-162.49-12.74,12.66-25.09,5-28.63,2.27,1.64,12.22,14.52,109.11,14.52,129.93l1.24,29.75Z" fill="#231f20"></path>
  <path d="M254.93,291.12l7.32,43.28a1.53,1.53,0,0,1-.65,1.5l-26.09,17.39a1.5,1.5,0,0,1-2.33-1.1l-4.1-39.57C211.9,155.31,199.26,149.19,198.87,149l27.4,7.51A29.35,29.35,0,0,1,249,179.29l20.25,73.16a3.79,3.79,0,0,0,2.88,2.7l47.58,10,3.18,29.73Z" fill="#f25c05"></path>
  <path d="M234.68,354a2,2,0,0,1-.86-.19,2,2,0,0,1-1.14-1.6l-4.1-39.58c-17-155.27-29.38-162.92-29.9-163.17l.32-.94,27.4,7.51a30.08,30.08,0,0,1,23.1,23.11l20.24,73.13a3.29,3.29,0,0,0,2.51,2.35l47.93,10.07,0,.36,3.23,30.31-67.92-3.74,7.21,42.65a2,2,0,0,1-.87,2l-26.08,17.4A2,2,0,0,1,234.68,354ZM200.37,150c3.74,5.5,15,32.36,29.2,162.59l4.11,39.58a1,1,0,0,0,1.55.73l26.09-17.39a1,1,0,0,0,.43-1l-7.42-43.89.63,0,67.38,3.72-3.08-28.78L272,255.64a4.29,4.29,0,0,1-3.26-3.06l-20.25-73.15a29.06,29.06,0,0,0-22.33-22.38Z" fill="#231f20"></path>
  <rect x="434.06" y="90.62" width="35.68" height="51.21" rx="17.84" fill="#fff"></rect>
  <path d="M451.91,142.33A18.37,18.37,0,0,1,433.56,124V108.46a18.35,18.35,0,0,1,36.69,0V124A18.36,18.36,0,0,1,451.91,142.33Zm0-51.21a17.36,17.36,0,0,0-17.35,17.34V124a17.36,17.36,0,0,0,17.34,17.34h0A17.36,17.36,0,0,0,469.25,124V108.46A17.36,17.36,0,0,0,451.91,91.12Z" fill="#231f20"></path>
  <path d="M442.65,92.93s11.24,16.19,27.1,15.53l0,18.67s0,8.42,3.32,15l3.3,13.55S502.13,170.9,504.77,195l2,22.8s31.06-7.27,24.45-32.71c0,0-6-9.58-18.83-20.81,0,0,8.59-18.51,3.3-29.08,0,0-1-8.59-22.8-13.21,0,0-6.93-4.63-3.3-12.56,0,0,11.56-29.74-20.82-28.41,0,0-23.45-10.91-38,9.91,0,0-11.9,13.21,2,27.42,0,0-17.51,39,12.89,45.27,0,0,.33-4.63,3.63-6.61l-.17-15.43s-14.57-2.26-15-17.61V108.46A19.12,19.12,0,0,1,442.65,92.93Z" fill="#fff"></path>
  <path d="M506.3,218.44l-2-23.37c-2.58-23.58-27.91-38.78-28.17-38.93l-.18-.11-3.34-13.7c-3.3-6.63-3.35-14.85-3.35-15.19l0-18.17c-14.25.32-24.85-12.87-26.71-15.35a18.8,18.8,0,0,0-8,14.82V124c.44,14.73,14,17,14.61,17.12l.42.07.17,16.13-.24.15c-3,1.82-3.39,6.17-3.39,6.21l-.05.57-.55-.11c-7.5-1.55-12.78-5.22-15.68-10.89-6.63-13,1.11-32,2.3-34.76-13.67-14.29-1.88-27.73-1.76-27.87C444.44,70.49,467,79.74,468.85,80.53c9.77-.38,16.55,2,20.19,7.13,6.11,8.54,1.21,21.43,1,22a9.39,9.39,0,0,0,3,11.91c20.84,4.44,22.9,12.51,23.07,13.53,4.93,10-2,26.44-3.17,29.1,12.6,11.05,18.59,20.58,18.65,20.68l.06.14c1.76,6.8,1,12.95-2.19,18.28-6.78,11.22-22.48,15-22.63,15Zm-29.51-63.05c2.33,1.43,25.95,16.56,28.48,39.58l1.93,22.22c2.83-.78,15.61-4.77,21.45-14.44,3.05-5.07,3.76-10.93,2.09-17.44-.54-.84-6.57-10.06-18.7-20.64l-.28-.24.15-.34c.09-.19,8.43-18.41,3.31-28.64l-.05-.17c0-.08-1.32-8.31-22.4-12.78l-.17-.08c-.08,0-7.25-5-3.48-13.18,0-.1,4.9-12.9-.89-21-3.45-4.83-10-7.07-19.45-6.69h-.13l-.11-.05c-.23-.11-23.25-10.48-37.37,9.74-.51.58-11.45,13.1,1.93,26.79l.24.25-.14.31c-.1.2-9.25,20.92-2.46,34.21,2.69,5.25,7.55,8.7,14.46,10.24.2-1.31.94-4.54,3.56-6.28L448.6,142c-2.44-.54-14.62-3.92-15-18V108.46a19.83,19.83,0,0,1,8.82-15.95l.4-.27.28.41c.11.15,10.83,15.33,25.75,15.33l.92,0,.52,0,0,19.19c0,.09.06,8.38,3.27,14.81l0,.1Z" fill="#231f20"></path>
  <path d="M444.31,173.88l1.32-10.24s0-4.63,3.63-6.61l23.79-14.87,3.3,13.55S455.21,164.63,444.31,173.88Z" fill="#fea595"></path>
  <path d="M443.64,175.09l1.49-11.52c0-.14,0-4.88,3.89-7l24.35-15.22L476.94,156l-.39.17c-.21.09-21.2,9-31.92,18.09ZM472.73,143l-23.2,14.5c-3.35,1.83-3.4,6.14-3.4,6.19L445,172.69c10.22-8.21,28-16,30.81-17.28Z" fill="#231f20"></path>
  <path d="M446.76,171.77a14.34,14.34,0,0,0-4.14,5c-2.5,5.06-7.27,17.59-10.54,44l-2.31,29.07-38,6.94s13.88,15.53,16.19,31.06l19.49-.66s.34,47.24,5,62.44c0,0,51.21-3,88.22-27.42,0,0-10.58-88.88-13.88-104.41l-2-22.8s-.51-22.08-28.42-39.31C476.35,155.71,456,164.72,446.76,171.77Z" fill="#f25c05"></path>
  <path d="M432.05,350.17l-.12-.37c-4.33-14.24-4.92-56.9-5-62.08l-19.43.66-.06-.44c-2.27-15.2-15.93-30.64-16.07-30.8l-.6-.66,38.5-7,2.28-28.69c3.28-26.45,8.05-39,10.6-44.2a14.54,14.54,0,0,1,4.27-5.18h0c9.15-7,29.5-16,29.7-16.13l.24-.11.23.14c27.82,17.18,28.64,39.51,28.65,39.73l2,22.77c3.26,15.31,13.77,103.5,13.87,104.39l0,.3-.26.17c-36.69,24.25-87.95,27.48-88.46,27.51ZM428,286.69v.51c0,.47.38,46.57,4.83,61.93,4.83-.35,52.57-4.33,87.31-27.15-.68-5.76-10.66-89.18-13.83-104l-2-22.86c0-.25-.84-21.94-27.95-38.8-2.32,1-20.74,9.38-29.26,15.9h0a13.71,13.71,0,0,0-4,4.84c-2.52,5.09-7.24,17.57-10.49,43.85l-2.34,29.43-37.52,6.85c2.63,3.13,13.46,16.68,15.67,30.21Z" fill="#231f20"></path>
  <g opacity="0.2">
    <path d="M429.77,249.87l8.88-2.62s2.65-33.35,4.5-41.82A73.27,73.27,0,0,0,429.77,249.87Z"></path>
  </g>
  <g opacity="0.2">
    <path d="M427.45,287.21l17.23-1.56a37.2,37.2,0,0,0,18.86-7c4.49-3.31,8.54-8,9-14.23l4.77-68.82s12.42,51.92,8.42,74.5a17.61,17.61,0,0,1-5.67,10.15c-6,5.33-20.25,14.17-52.25,21.22Z"></path>
  </g>
  <path d="M408,287.87s-2.92.94-7.95-4.62l6.88-.09A25.29,25.29,0,0,1,408,287.87Z" fill="#f25c05"></path>
  <path d="M407.43,288.42c-1.21,0-3.94-.58-7.79-4.83l-.74-.83,8.32-.1.13.31a25.29,25.29,0,0,1,1.1,4.81l.08.43-.41.13A2.51,2.51,0,0,1,407.43,288.42Zm-6.28-4.69c3.18,3.24,5.35,3.68,6.23,3.69a30.39,30.39,0,0,0-.85-3.75Z" fill="#231f20"></path>
  <path d="M406.89,283.16l-28.29,2.47-18.46,5.49c-9.24,4.33-10.69,0-10.69,0-3.42.28-5-.48-5.73-1.34a2.47,2.47,0,0,1-.62-1.84c-5.48-.86-6.93-4.9-6.93-4.9-6.92-8.66,12.13-18.76,12.13-18.76s9.38,3.48,18.06,1.93a1.34,1.34,0,0,0,1.05-1.66c-.33-1.2-1.65-2.94-6.1-4.43,13.36-2.6,30.46-3.31,30.46-3.31C404.65,271.28,406.89,283.16,406.89,283.16Z" fill="#fff"></path>
  <path d="M353.27,293.55a6.12,6.12,0,0,1-2.38-.44,3.61,3.61,0,0,1-1.73-1.47c-2.85.19-4.81-.33-5.82-1.53a3,3,0,0,1-.74-1.75,9,9,0,0,1-6.86-5.07,6.71,6.71,0,0,1-1.43-5.74c1.47-7.13,13.26-13.45,13.76-13.71l.2-.11.21.08c.09,0,9.35,3.41,17.79,1.9a.79.79,0,0,0,.55-.37.82.82,0,0,0,.11-.66c-.3-1.08-1.55-2.67-5.78-4.09l-1.79-.6,1.85-.37c13.25-2.57,30.37-3.31,30.54-3.31H392l.15.17c12.83,14.42,15.22,26.48,15.24,26.6l.1.54-28.78,2.52-18.42,5.47A17.21,17.21,0,0,1,353.27,293.55Zm-3.47-3,.13.37a2.41,2.41,0,0,0,1.4,1.25c1.28.53,3.82.7,8.59-1.54l18.64-5.53,27.71-2.42c-.61-2.46-3.75-13-14.72-25.4a252,252,0,0,0-28.39,3c3.31,1.42,4.42,3,4.73,4.14a1.83,1.83,0,0,1-1.44,2.28c-8.09,1.45-16.61-1.35-18.1-1.87-1.54.85-11.78,6.73-13.06,12.92a5.69,5.69,0,0,0,1.28,5l.08.14c.05.15,1.43,3.78,6.53,4.58l.49.08-.07.49a1.88,1.88,0,0,0,.5,1.44c.58.68,2,1.44,5.31,1.16Z" fill="#231f20"></path>
  <path d="M361.64,266.85a43.61,43.61,0,0,1-13.42-2.34l-.48-.17.43-.27c2.55-1.58,6.95-3,13.09-4.2h.07l.06,0c4.54,1.53,5.91,3.35,6.26,4.6a1.58,1.58,0,0,1-1.24,2h0A26.64,26.64,0,0,1,361.64,266.85Zm-12.74-2.63c2.06.68,10,3.06,17.42,1.74h0a1,1,0,0,0,.71-.48,1.08,1.08,0,0,0,.14-.87c-.31-1.13-1.59-2.78-5.88-4.24C355.61,261.5,351.44,262.79,348.9,264.22Z" fill="#ed1c24"></path>
  <path d="M336.47,284.69a.52.52,0,0,1-.21,0A.51.51,0,0,1,336,284c.18-.4,4.49-9.76,10.41-11.53a.51.51,0,0,1,.63.33.49.49,0,0,1-.34.62c-5.48,1.65-9.75,10.9-9.79,11A.49.49,0,0,1,336.47,284.69Z" fill="#231f20"></path>
  <path d="M343.1,288.44a.54.54,0,0,1-.26-.07.5.5,0,0,1-.16-.69l4.9-8.08a.52.52,0,0,1,.69-.17.51.51,0,0,1,.17.69l-4.91,8.08A.49.49,0,0,1,343.1,288.44Z" fill="#231f20"></path>
  <path d="M349.45,291.62a.5.5,0,0,1-.26-.08.49.49,0,0,1-.16-.68l5.2-8.37a.49.49,0,1,1,.84.52l-5.19,8.37A.5.5,0,0,1,349.45,291.62Z" fill="#231f20"></path>
  <path d="M366.36,266.21c-8.68,1.55-18.06-1.93-18.06-1.93s-19.05,10.1-12.13,18.76c0,0,1.45,4,6.93,4.9a2.47,2.47,0,0,0,.62,1.84l0,.19a58.87,58.87,0,0,1-20.78,4.9l-3.18-29.73,20.51-7.93a10,10,0,0,1,3.63-.69c4.9,0,12.24,2.27,12.24,2.27a39.7,39.7,0,0,1,5.21,1.33c4.45,1.49,5.77,3.23,6.1,4.43A1.34,1.34,0,0,1,366.36,266.21Z" fill="#fff"></path>
  <path d="M322.45,295.38l-3.27-30.57,20.87-8.06a10,10,0,0,1,3.81-.73c4.92,0,12.08,2.2,12.38,2.3a38.32,38.32,0,0,1,5.23,1.32c4.65,1.56,6.06,3.46,6.42,4.78a1.83,1.83,0,0,1-1.44,2.28c-8.09,1.45-16.61-1.35-18.1-1.87-1.54.85-11.78,6.73-13.06,12.92a5.69,5.69,0,0,0,1.28,5l.08.14c.05.15,1.43,3.78,6.53,4.58l.49.08-.07.49a1.88,1.88,0,0,0,.5,1.44l.16.18-.14.67-.22.11c-9.8,4.61-20.88,4.95-21,4.95Zm-2.19-29.91,3.08,28.88a59,59,0,0,0,19.71-4.64,2.93,2.93,0,0,1-.45-1.35,9,9,0,0,1-6.86-5.07,6.71,6.71,0,0,1-1.43-5.74c1.47-7.13,13.26-13.45,13.76-13.71l.2-.11.21.08c.09,0,9.35,3.41,17.79,1.9h0a.79.79,0,0,0,.54-.37.82.82,0,0,0,.11-.66c-.3-1.08-1.55-2.67-5.78-4.09a38.21,38.21,0,0,0-5.15-1.3c-.12,0-7.37-2.23-12.15-2.27a9.75,9.75,0,0,0-3.44.66Z" fill="#231f20"></path>
  <path d="M170,130.9l-.32,19.85s14.07,13.44,29.23-1.72l-.78-15.16Z" fill="#fff"></path>
  <path d="M183.55,156.71c-8.26,0-14.17-5.51-14.26-5.6l-.16-.15.33-20.61,29.1,3.07.81,15.81-.15.16C193.67,154.94,188.23,156.71,183.55,156.71Zm-13.41-6.17c1.63,1.47,14.32,12,28.21-1.7l-.75-14.52-27.16-2.86Z" fill="#231f20"></path>
  <path d="M198.08,133.87l.47,7.35s-15.51,5.12-25-6.41Z" fill="#231f20"></path>
  <path d="M184.92,353.67l-54.06-2.45a2.2,2.2,0,0,1-2.09-2.11l-3.84-113.49,4.1-56.5a28.37,28.37,0,0,1,21.75-25.57,124.83,124.83,0,0,1,18.85-2.8s14.69,108.79,14.69,131.14l1.24,29.76,1.64,39.75A2.18,2.18,0,0,1,184.92,353.67Z" fill="#f25c05"></path>
  <path d="M185,354.18h-.12l-54-2.45a2.72,2.72,0,0,1-2.57-2.6l-3.84-113.48,4.1-56.56a28.76,28.76,0,0,1,22.13-26,126.8,126.8,0,0,1,18.93-2.8l.48,0,.06.47c.15,1.08,14.69,109.07,14.69,131.19l2.88,69.5a2.7,2.7,0,0,1-2.69,2.8Zm-.07-1a1.69,1.69,0,0,0,1.76-1.75l-2.88-69.51c0-21.34-13.57-122.8-14.62-130.62A124.77,124.77,0,0,0,150.89,154a27.75,27.75,0,0,0-21.36,25.11l-4.1,56.51,3.84,113.43a1.7,1.7,0,0,0,1.61,1.63Z" fill="#231f20"></path>
  <polygon points="204.52 261.91 214.2 329.66 123.41 340.72 116.27 275.05 204.52 261.91" fill="#f3c259"></polygon>
  <path d="M123,341.28l-7.25-66.66.48-.07L205,261.34l9.82,68.75Zm-6.15-65.81,7,64.69,89.77-10.94-9.53-66.74Z" fill="#231f20"></path>
  <path d="M134,311.66s11.06,29.38,22.75,27.17c0,0,2.37,1.1,7.42.16,0,0,4.58.94,6.32-2.53,0,0,5.68-.95,1.58-9.32l-7.27-11.69a14.16,14.16,0,0,0,11.27,1.77,1.47,1.47,0,0,0,.1-2.82,93.5,93.5,0,0,1-15.09-6.16,13.28,13.28,0,0,1-3.3-2.57l-4.35-4.59Z" fill="#fff"></path>
  <path d="M160.33,339.87a10.72,10.72,0,0,1-3.64-.52c-11.92,2-22.7-26.3-23.15-27.51l-.16-.41,20.15-11,4.61,4.87a13,13,0,0,0,3.18,2.47,92.41,92.41,0,0,0,15,6.13,2,2,0,0,1-.14,3.77,14.83,14.83,0,0,1-9.94-.86l6.24,10c1.65,3.36,2,6,1,7.84a4.31,4.31,0,0,1-2.71,2.17c-1.8,3.24-5.94,2.72-6.65,2.6A21.13,21.13,0,0,1,160.33,339.87Zm-3.52-1.56.15.07s2.32,1,7.12.11h.09l.1,0c.17,0,4.23.82,5.77-2.26l.11-.23.25,0a3.38,3.38,0,0,0,2.25-1.72c.78-1.54.42-3.92-1-6.89L163,313.52l2.09,1.53A13.78,13.78,0,0,0,176,316.74a1,1,0,0,0,.73-.91.94.94,0,0,0-.66-.95,92.91,92.91,0,0,1-15.18-6.2,14,14,0,0,1-3.43-2.66l-4.08-4.31-18.7,10.18c1.38,3.51,11.6,28.42,22,26.45Z" fill="#231f20"></path>
  <path d="M156.75,339.33a.51.51,0,0,1-.42-.22l-5.68-8.53a.5.5,0,0,1,.13-.7.51.51,0,0,1,.7.14l5.68,8.53a.49.49,0,0,1-.14.69A.46.46,0,0,1,156.75,339.33Z" fill="#231f20"></path>
  <path d="M164.17,339.49a.5.5,0,0,1-.43-.25l-5.21-9a.5.5,0,1,1,.86-.5l5.21,9a.51.51,0,0,1-.18.69A.59.59,0,0,1,164.17,339.49Z" fill="#231f20"></path>
  <path d="M170.49,337a.52.52,0,0,1-.44-.25l-4.89-8.37a.5.5,0,0,1,.86-.5l4.9,8.37a.49.49,0,0,1-.18.68A.47.47,0,0,1,170.49,337Z" fill="#231f20"></path>
  <path d="M254.93,291.62a.49.49,0,0,1-.49-.43L239.79,187.77a.51.51,0,0,1,.43-.56.49.49,0,0,1,.56.42l14.65,103.42a.51.51,0,0,1-.43.57Z" fill="#231f20"></path>
  <rect x="164.32" y="82.32" width="39.18" height="56.35" rx="19.59" transform="translate(-13.73 27.01) rotate(-8.1)" fill="#fff"></rect>
  <path d="M185.1,139.08a20.11,20.11,0,0,1-19.87-17.26l-2.42-17a20.09,20.09,0,1,1,39.78-5.66l2.42,17A20.12,20.12,0,0,1,188,138.88,19.7,19.7,0,0,1,185.1,139.08Zm-2.39-56.17a19.09,19.09,0,0,0-18.91,21.78l2.42,17a19.09,19.09,0,0,0,21.59,16.21h0A19.09,19.09,0,0,0,204,116.3l-2.42-17A19.12,19.12,0,0,0,182.71,82.91Z" fill="#231f20"></path>
  <path d="M164,123.28c-2.35,1.2-5.62-.49-7.32-3.79a9,9,0,0,1-1-3.44c-.14-2.09.62-3.93,2.15-4.72,2.33-1.2,5.61.49,7.31,3.79S166.37,122.07,164,123.28Z" fill="#fff"></path>
  <path d="M162.42,124.16c-2.25,0-4.73-1.69-6.15-4.44a9.65,9.65,0,0,1-1-3.64c-.15-2.36.77-4.35,2.42-5.2,2.58-1.32,6.16.47,8,4s1.19,7.5-1.38,8.84h0A4.09,4.09,0,0,1,162.42,124.16Zm-2.89-12.72a3.14,3.14,0,0,0-1.41.33c-1.29.66-2,2.29-1.88,4.24a8.61,8.61,0,0,0,.92,3.26c1.57,3,4.56,4.64,6.65,3.57s2.51-4.44.95-7.49C163.51,112.94,161.4,111.44,159.53,111.44Z" fill="#231f20"></path>
  <path d="M204,93.7a3.65,3.65,0,0,1-2.65,2.51,15.49,15.49,0,0,0-1.88-4.07s-2.66,4.38-8.45,1.56a8.25,8.25,0,0,1-2-3.9s-6.88,10.47-17,3.75c0,0,.62,8.13-7.82,8.44l1,13.13c-1.7-3.3-5-5-7.31-3.79-1.53.79-2.29,2.63-2.15,4.72h-.17s-12-13.91-3.13-31c0,0,7.66-17.34,32.67-16.72,0,0,26.41-5.15,20.94,15.32C206.05,83.7,218.87,92.61,204,93.7Z" fill="#fff"></path>
  <path d="M165.89,117.55l-1.13-2.2c-1.58-3-4.56-4.65-6.64-3.58-1.29.66-2,2.29-1.88,4.24l0,.5-.92.06-.16-.19C155.07,116.24,143,102,152,84.87c.06-.14,7.79-17,31.83-17l1.24,0c1.08-.21,14-2.49,19.66,3.57,2.58,2.76,3.22,6.81,1.89,12,1.3,1,5.78,4.47,5,7.41-.51,1.84-2.87,2.91-7.22,3.27a3.94,3.94,0,0,1-2.93,2.53l-.44.07-.12-.42A17.7,17.7,0,0,0,199.46,93c-1,1.17-3.87,3.48-8.64,1.16l-.11-.07a8.07,8.07,0,0,1-1.88-3.2,14.59,14.59,0,0,1-8,5.21,11.66,11.66,0,0,1-8.39-1.64,9,9,0,0,1-2.09,5.46,8.14,8.14,0,0,1-5.69,2.55Zm17.94-48.69c-23.37,0-30.86,16.28-30.93,16.45-7.39,14.15,0,26.22,2.36,29.53a4.86,4.86,0,0,1,2.4-4c2.13-1.09,5,0,6.89,2.33l-.93-11.7.53,0a7.41,7.41,0,0,0,5.49-2.24,8.46,8.46,0,0,0,1.84-5.66l-.07-1,.85.56a10.94,10.94,0,0,0,8.4,2c4.86-1,7.91-5.54,7.94-5.59l.6-.92.3,1.06a8.3,8.3,0,0,0,1.83,3.62c5.28,2.53,7.63-1.23,7.73-1.4l.38-.62.45.58a14.47,14.47,0,0,1,1.81,3.77,3.24,3.24,0,0,0,1.84-2l.1-.33.35,0c4-.29,6.26-1.18,6.64-2.57.59-2.16-3.31-5.44-4.87-6.52l-.28-.2.09-.34c1.34-5,.82-8.89-1.57-11.44-5.41-5.79-18.66-3.29-18.79-3.26h-.11Z" fill="#231f20"></path>
  <path d="M174.63,84.06a7.76,7.76,0,0,1-3-.66.5.5,0,1,1,.42-.91s2.6,1.19,4.29.12c1-.66,1.55-2.06,1.55-4.17a.5.5,0,0,1,.24-.43.52.52,0,0,1,.5,0c2,1.07,7.57,3.49,9.5,1.9.87-.71,1-2.26.23-4.59a.51.51,0,0,1,.33-.63.5.5,0,0,1,.62.33c.85,2.77.67,4.67-.54,5.67-2.39,2-7.87-.43-9.9-1.44q-.21,3.08-2,4.22A4.19,4.19,0,0,1,174.63,84.06Z" fill="#231f20"></path>
  <path d="M150.88,163.73s-6.46-12-16.77-3.55a21.85,21.85,0,0,0-6.06,8.19l-25.28,57.88s-11.29,20.83,0,36l30,50.29,22.94-12.88L131.2,241.52a6.48,6.48,0,0,1,0-5.11L150,193.25a43.55,43.55,0,0,0,3.76-18.36C153.68,170.73,153,166.45,150.88,163.73Z" fill="#f25c05"></path>
  <path d="M132.59,313.22l-30.25-50.71c-11.32-15.21-.12-36.28,0-36.49l25.26-57.85a22.44,22.44,0,0,1,6.2-8.38c3.13-2.55,6.24-3.54,9.24-2.95,5,1,8,6.09,8.27,6.61,1.85,2.44,2.86,6.29,3,11.43a43.69,43.69,0,0,1-3.8,18.57l-18.79,43.16a6,6,0,0,0,0,4.72l24.68,58.55Zm8.75-155.54a11.07,11.07,0,0,0-6.91,2.89,21.29,21.29,0,0,0-5.92,8l-25.28,57.88c-.13.25-11,20.76-.06,35.5L133,311.87l22.12-12.43-24.33-57.72a7,7,0,0,1,0-5.51l18.79-43.16a42.64,42.64,0,0,0,3.71-18.15c-.12-4.94-1.06-8.6-2.8-10.87l0-.07c0-.05-2.87-5.2-7.61-6.14A8.35,8.35,0,0,0,141.34,157.68Z" fill="#231f20"></path>
  <path d="M358.69,287.08s-4.33.58-1.44,6.35c0,0,3.46,4.62,6.64.29,0,0,4.33.29,5.19-2.89,0,0,2.31,2.31,5.49-2.31,0,0,7.21.29,4.33-5.48,0,0-4.91-10.1-9.53-4.33,0,0-6.06-3.47-4.62,3.46C364.75,282.17,358.4,281,358.69,287.08Z" fill="#fff"></path>
  <path d="M360.88,296.07c-2.25,0-4-2.25-4-2.34-1.17-2.33-1.39-4.13-.7-5.43a3.39,3.39,0,0,1,2-1.61,4.86,4.86,0,0,1,1.52-3.86,6.3,6.3,0,0,1,4.44-1.23c-.29-1.9,0-3.18.89-3.82,1.31-.95,3.36-.12,4.22.3a4.11,4.11,0,0,1,3.58-1.63c3.58.4,6.4,6.13,6.52,6.37.87,1.76,1,3.2.26,4.29-1.12,1.73-3.89,1.9-4.79,1.91-1.27,1.79-2.59,2.75-3.91,2.88a2.86,2.86,0,0,1-1.57-.3c-1.13,2.47-4.25,2.61-5.21,2.63a4.18,4.18,0,0,1-3.23,1.84Zm-3.19-2.87s1.47,1.87,3.19,1.87h0a3.34,3.34,0,0,0,2.58-1.65l.17-.22.27,0s3.93.22,4.68-2.52l.23-.83.61.61a1.84,1.84,0,0,0,1.4.42c1.05-.11,2.19-1,3.31-2.66l.16-.23h.28s3.18.1,4.18-1.45c.5-.77.39-1.89-.32-3.31,0-.06-2.7-5.48-5.73-5.82a3.34,3.34,0,0,0-3,1.58l-.27.33-.37-.21c-.66-.38-2.59-1.22-3.5-.55-.63.45-.76,1.66-.38,3.48l.15.73-.73-.14s-2.73-.46-4.31.92a4.15,4.15,0,0,0-1.16,3.47l0,.46-.45.06a2.54,2.54,0,0,0-1.73,1.2c-.52,1-.29,2.53.66,4.43Z" fill="#231f20"></path>
  <ellipse cx="472.22" cy="121.01" rx="6.61" ry="6.44" transform="translate(182.09 512.76) rotate(-67.85)" fill="#fff"></ellipse>
  <path d="M472.11,128.1a7,7,0,0,1-2.57-.5,7,7,0,1,1,5.34-.08A6.88,6.88,0,0,1,472.11,128.1Zm.24-13.17a6.12,6.12,0,0,0-5.63,3.84,6,6,0,0,0,3.2,7.9,5.82,5.82,0,0,0,4.56-.07,6.15,6.15,0,0,0,3.25-3.34,6,6,0,0,0-3.2-7.9A5.84,5.84,0,0,0,472.35,114.93Z" fill="#231f20"></path>
  <path d="M449.26,157l23.79-14.87s-2.94-4.35-3.3-14.58c0-.07-.1-.09-.12,0-.69,2.55-5,15.66-20.54,14Z" fill="#fff"></path>
  <path d="M448.77,157.92l-.18-16.87.55.06c15.09,1.58,19.31-11.12,20-13.68l.12-.41h.48a.57.57,0,0,1,.51.54c.35,9.93,3.19,14.28,3.22,14.32l.28.43Zm.83-15.77.15,14L472.37,142c-.68-1.24-2.45-5-3-12.13C467.56,134.44,462.38,143.21,449.6,142.15Zm20.51-14.46Z" fill="#231f20"></path>
  <path d="M449.09,141.6l.14,8s11-2.06,14.3-12.1A17.28,17.28,0,0,1,449.09,141.6Z" fill="#231f20"></path>
  <path d="M442.68,110.76a.52.52,0,0,1-.37-.16,3.57,3.57,0,0,0-2.74-1.44,3.21,3.21,0,0,0-2.16,1.06.51.51,0,0,1-.71.06.51.51,0,0,1-.06-.71,4.27,4.27,0,0,1,2.91-1.41,4.56,4.56,0,0,1,3.49,1.76.49.49,0,0,1,0,.7A.51.51,0,0,1,442.68,110.76Z" fill="#231f20"></path>
  <path d="M459.52,115.09a.49.49,0,0,1-.45-.29,4.24,4.24,0,0,0-2.41-2.38,4.93,4.93,0,0,0-3.41.32.5.5,0,1,1-.46-.88,5.76,5.76,0,0,1,4.18-.39,5.15,5.15,0,0,1,3,2.9.5.5,0,0,1-.24.67A.54.54,0,0,1,459.52,115.09Z" fill="#231f20"></path>
  <ellipse cx="439.07" cy="115.61" rx="1.68" ry="2.35" fill="#231f20"></ellipse>
  <ellipse cx="454.35" cy="117.65" rx="1.68" ry="2.35" fill="#231f20"></ellipse>
  <path d="M445.81,123.87a.56.56,0,0,1-.27-.08l-1.69-1a1.6,1.6,0,0,1-.6-2c1.26-2.6,2.79-5.76,3-6a.51.51,0,0,1,.7-.14.5.5,0,0,1,.14.69c-.14.22-1.29,2.55-2.91,5.92a.58.58,0,0,0,.22.76l1.69,1a.5.5,0,0,1-.26.93Z" fill="#231f20"></path>
  <path d="M440.87,127.7l9.15-.6S445.69,138.52,440.87,127.7Z" fill="#fff"></path>
  <path d="M445.24,132.86c-1.74,0-3.36-1.67-4.82-5l-.29-.66,10.63-.69-.28.72c-.08.23-2.11,5.5-5.17,5.59Zm-3.6-4.71c1.17,2.43,2.41,3.71,3.6,3.71h0c1.69-.05,3.22-2.62,4-4.21Z" fill="#231f20"></path>
  <path d="M177.9,105.65a.41.41,0,0,1-.16,0,.5.5,0,0,1-.32-.62c0-.14,1.14-3.42,7.14-2.22a.5.5,0,1,1-.2,1c-5.06-1-6,1.44-6,1.54A.49.49,0,0,1,177.9,105.65Z" fill="#231f20"></path>
  <path d="M201.24,103.05a.48.48,0,0,1-.32-.11c-3-2.48-5.12-.18-5.21-.08a.49.49,0,0,1-.7,0,.51.51,0,0,1,0-.71s2.79-3.14,6.59,0a.49.49,0,0,1,.07.7A.48.48,0,0,1,201.24,103.05Z" fill="#231f20"></path>
  <ellipse cx="182.68" cy="109.49" rx="2.06" ry="2.72" transform="translate(-16.12 33.09) rotate(-9.91)" fill="#231f20"></ellipse>
  <ellipse cx="198.5" cy="108.57" rx="2.06" ry="2.72" transform="translate(-15.73 35.8) rotate(-9.91)" fill="#231f20"></ellipse>
  <path d="M192,116.69a.5.5,0,0,1-.28-.92l2.18-1.45a.31.31,0,0,0,.11-.38l-3.24-6.29a.5.5,0,1,1,.89-.45l3.25,6.31a1.31,1.31,0,0,1-.46,1.64l-2.18,1.45A.46.46,0,0,1,192,116.69Z" fill="#231f20"></path>
  <path d="M191.12,126.6a10.08,10.08,0,0,1-6.12-2.33.5.5,0,0,1,.67-.74c.23.2,5.49,4.84,11-.38a.5.5,0,1,1,.69.72A8.83,8.83,0,0,1,191.12,126.6Z" fill="#231f20"></path>
</svg>
